<svg xmlns="http://www.w3.org/2000/svg" width="129.89" height="320.081" viewBox="0 0 129.89 320.081">
  <g id="Ast2" transform="translate(0 0.769)">
    <path id="Caminho_180" data-name="Caminho 180" d="M57.907,61.632l-3.312-6.173a14.86,14.86,0,0,0-16.111-7.378L18.007,52.447a14.9,14.9,0,0,0-11.594,12.8L.089,120.5a15.11,15.11,0,0,0,9.636,15.659L33.967,144.9Z" transform="translate(0 -0.969)" fill="#cdcdcd"/>
    <path id="Caminho_181" data-name="Caminho 181" d="M46.136,102.573l-3.2-54.366-1.592.583Q17.8,57.467,15.1,62.461l-.084.165c-2.427,5.078-6.637,4.5-7.82,13.766L5.5,90.9c-1.57,13.756-3.4,31.93-2.235,37.845a36.745,36.745,0,0,0,.958,3.769,15.071,15.071,0,0,0,5.5,3.65l10.54,3.8,21.191-21.11Z" transform="translate(0 -0.969)" fill="#9c9c9c"/>
    <path id="Caminho_182" data-name="Caminho 182" d="M39.99,52.6C36.527,54.254,29.3,58.62,18.458,65.7c4.517,96.062,6.926,145.6,7.528,148.459.753,4.367-10.389,56.162-8.884,60.077a16.629,16.629,0,0,0,6.023,7.679c1.807,1.054-2.108,10.238-2.108,12.045s-1.506,12.2-.9,15.508.9,8.733,7.83,8.733,8.281-5.119,7.528-10.238c-.753-5.27-1.054-5.421,0-8.432s.151-3.614-.9-8.131c-1.2-4.667-.452-10.539.9-11.443s6.625-4.517,7.528-7.98,10.088-46.525,10.088-52.7c0-4.216.753-32.768.753-32.768s4.969,30.057,4.969,32.316c0,3.312-.452,28.909-1.807,32.824-1.2,4.065-1.355,9.636,0,10.991A7.352,7.352,0,0,1,58.66,264.6c-1.2,8.131-1.506,12.8-.9,14.154.9,1.957,7.378,1.957,10.841,6.775s6.625,7.077,11.895,7.077,10.088-.9,6.173-6.474c-3.764-5.571-13.7-13.853-13.7-17.316v-7.378q4.065-2.936,4.065-5.42c0-2.56,6.173-28.457,6.926-33.125a73.468,73.468,0,0,0,0-19.122c-.9-6.625-3.915-50.741-6.023-56.312s-3.312-6.023-3.312-8.281-.151-4.969.6-6.023,1.957-2.258,2.259-3.915,4.065-19.122,2.861-35.835-9.787-36.287-13.1-38.244c-2.258-1.355-5.42-2.108-9.636-2.409C49.475,50.941,43.453,50.941,39.99,52.6Z" transform="translate(0 -0.969)" fill="#fff"/>
    <path id="Caminho_183" data-name="Caminho 183" d="M79.438,82.583S58.725,98.1,50.831,96.563,33.892,79.549,33.892,79.549L19.539,119.374,26.7,151.069s5.8,1.76,7.2-3.712-4.629-27.123,0-30.467,8.293,14.3,15.151,14.3,28.467-3.973,28.467-3.973l4.338-30.65Z" transform="translate(0 -0.969)" fill="rgba(0,0,0,0.29)"/>
    <path id="Caminho_184" data-name="Caminho 184" d="M58.215,214.7c.151,2.108.476,3.512.476,3.964a72.059,72.059,0,0,0,0,8.438c3.764.9,7.046,2.108,14.123,0a63.577,63.577,0,0,0,11.895-5.27c.151-3.764.6-8.532,0-12.446-.151-1.205-.151-4.23-1.054-6.525a78.028,78.028,0,0,0-15.207,5.721C66.188,210.091,64.388,211.24,58.215,214.7Z" transform="translate(0 -0.969)" fill="#9c9c9c" opacity="0.5"/>
    <path id="Caminho_185" data-name="Caminho 185" d="M23.879,170.944c5.872.451,11.39-.461,15.154.894a118.846,118.846,0,0,1,15.11,6.785c3.764-2.346,9.189-7.383,13.924-10.593a51.463,51.463,0,0,1,12.018-6.546c-.81-6.972-1.4-12.373-2.152-14.029a37.817,37.817,0,0,0-2.58-5.42c-5.42,3.613-9.466,6.926-12.025,10.389-3.011,3.915-5.722,10.088-8.432,18.52a101.846,101.846,0,0,0-13.4-18.52C36.677,147,30.2,143.54,22.223,142.035,23.126,152.876,23.578,162.662,23.879,170.944Z" transform="translate(0 -0.969)" fill="rgba(112,112,112,0.69)" opacity="0.5"/>
    <path id="Caminho_186" data-name="Caminho 186" d="M21.018,156.79c.151.15.151.3.3.6,1.355,3.463-.452,3.764-1.054,7.077-.6,3.463,1.585,17.553,3.843,19.812,0,3.03,5.448,5.2,6.352,5.8a9.322,9.322,0,0,0,5.615.738c1.807-.452-3.312-17.466-1.957-18.52,1.2-1.054,4.818,3.313,6.474,4.216,1.656.753,2.71-1.807.753-4.969-1.807-3.161-7.518-12.5-8.723-14.153s1.195-10.1,1.195-11.759c0-.451-.3-1.491,0-2.093a39.38,39.38,0,0,0-6.023.3C25.987,144.293,23.578,155.585,21.018,156.79Z" transform="translate(0 -0.969)" fill="rgba(0,0,0,0.29)"/>
    <path id="Caminho_187" data-name="Caminho 187" d="M58.66,264.3h0c-1.2,8.281-1.506,12.949-.9,14.3.9,1.957,7.378,1.957,10.841,6.776s6.625,7.076,11.895,7.076,10.088-.9,6.173-6.474c-3.764-5.571-13.7-13.852-13.7-17.315v-7.228a51.531,51.531,0,0,1-7.528,2.108A34.568,34.568,0,0,1,58.66,264.3Z" transform="translate(0 -0.969)" fill="#cdcdcd"/>
    <path id="Caminho_188" data-name="Caminho 188" d="M57.757,278.6c.9,1.958,7.378,1.958,10.841,6.776s6.625,7.076,11.895,7.076l.813-.007c2.824-.057,5.389-.437,6.368-1.743q-8.784.311-11.853-1.184c-3.521-1.715-6.392-6.163-8.726-8.509q-1.91-1.92-9.571-3.42A3.567,3.567,0,0,0,57.757,278.6Z" transform="translate(0 -0.969)" fill="#9c9c9c"/>
    <path id="Caminho_189" data-name="Caminho 189" d="M20.115,312.477c.6,3.312,2.711,7.8,7.843,7.8a7.419,7.419,0,0,0,7.62-8.466c-.414,3.555-2.485,6.383-7.633,6.383-6.926,0-7.227-5.42-7.83-8.733a8.074,8.074,0,0,1-.1-.848A19.6,19.6,0,0,0,20.115,312.477Z" transform="translate(0 -0.969)" fill="#9c9c9c"/>
    <path id="Caminho_190" data-name="Caminho 190" d="M23.277,282.062c1.355,1.506-2.259,10.088-2.259,11.895s-1.506,12.2-.9,15.508.9,8.733,7.83,8.733,8.281-5.119,7.528-10.238c-.753-5.27-1.054-5.421,0-8.432s.15-3.614-.9-8.131a21.446,21.446,0,0,1,.151-10.389,21.759,21.759,0,0,1-4.366,1.355A18.83,18.83,0,0,1,23.277,282.062Z" transform="translate(0 -0.969)" fill="#cdcdcd"/>
    <path id="Caminho_191" data-name="Caminho 191" d="M25.987,214.457c.151,1.656-.753,7.378-1.957,14.455a43.826,43.826,0,0,0,13.852,2.71,64.117,64.117,0,0,0,13.7-1.656,98.619,98.619,0,0,0,1.506-10.841V215.21a76.157,76.157,0,0,0-13.4-1.355C36.225,213.855,31.708,214.006,25.987,214.457Z" transform="translate(0 -0.969)" fill="#9c9c9c" opacity="0.5"/>
    <path id="Caminho_192" data-name="Caminho 192" d="M65.285,54.4c4.367,1.054,8.733,2.108,10.389,3.011,2.409,1.355,26.651,33.878,28.156,39.9,1.506,6.173.3,12.647-4.517,15.659s-24.241,11.593-27.554,10.238c-3.312-1.2-2.409-1.806-4.969-1.054s-5.872,4.668-9.787,6.174c-6.173,2.762-15.207-9.185-11.142-12.2,1.2-1.807,5.462-2.861,6.667-3.162a11.161,11.161,0,0,1,5.228,0c1.807,0,4.065-.753,4.065-1.807a3.732,3.732,0,0,1,1.355-3.463c1.355-.753,17.466-11.443,17.466-12.2A105.549,105.549,0,0,0,75.722,75.4C71.356,62.907,67.694,55.759,65.285,54.4Z" transform="translate(0 -0.969)" fill="#fff"/>
    <path id="Caminho_193" data-name="Caminho 193" d="M58.359,113.185s-3.9-2.325-5.244-2.325-7.123-.126-7.521.851,2.478,4.525,2.478,4.525Z" transform="translate(0 -0.969)" fill="#cdcdcd"/>
    <path id="Caminho_194" data-name="Caminho 194" d="M61.275,112.3l-.222-.124a6.986,6.986,0,0,1-3.3.8,11.54,11.54,0,0,0-4.828-.1l-.4.1c-1.2.3-5.462,1.355-6.667,3.162-4.013,2.972,4.736,14.649,10.9,12.3l.242-.1c3.915-1.506,7.227-5.421,9.787-6.173l.515-.146a6.408,6.408,0,0,1,.763-.164l-.17-.556a31.218,31.218,0,0,0-1.721-4.4,11.6,11.6,0,0,0-4.9-4.587l-.222-.124Z" transform="translate(0 -0.969)" fill="#cdcdcd"/>
    <path id="Caminho_195" data-name="Caminho 195" d="M59.413,111.921a19.209,19.209,0,0,1,8.281,0,10.931,10.931,0,0,1,6.775,4.969l20.778-9.938a3.927,3.927,0,0,0-1.2-3.312c-.674-4.072-8.131-7.077-12.2-7.077s-18.971,6.625-20.778,7.98C60.015,105.6,59.413,108.006,59.413,111.921Z" transform="translate(0 -0.969)" fill="#ffe066" fill-rule="evenodd"/>
    <path id="Caminho_196" data-name="Caminho 196" d="M77.228,110.854l16.713-7.368a3.6,3.6,0,0,1,1.307,3.466L74.47,116.89a11.077,11.077,0,0,0-6.775-4.711,19.177,19.177,0,0,0-8.281,0c0-3.764.5-5.079,1.7-6.133C71.283,104.327,75.722,111,77.228,110.854Z" transform="translate(0 -0.969)" fill="#ffc501"/>
    <path id="Caminho_197" data-name="Caminho 197" d="M13.038,68.558a10.88,10.88,0,0,1,8.281-3.312c2.71,0,15.057,4.668,13.4,19.273-1.656,14.756-5.872,21.381-5.872,27.4s1.2,9.787,2.108,14.3,1.807,18.52.9,20.628S29,151.37,29,152.876c0,1.656-.6,3.764.6,5.42s5.42,5.571,7.378,8.883c1.807,3.162.9,5.873-.753,4.969-1.656-.753-5.27-5.27-6.474-4.216S32.01,186,30.2,186.452s-2.409-1.957-3.312-2.56-6.775-.9-8.883-3.011c-2.259-2.258-2.71-15.81-2.108-19.273s2.409-3.613,1.054-7.076-4.366-3.463-5.119-6.173-6.474-26.35-5.722-31.62c.9-5.269,2.259-21.079,2.259-24.391C8.22,88.884,10.78,71.118,13.038,68.558Z" transform="translate(0 -0.969)" fill="#fff"/>
    <path id="Caminho_198" data-name="Caminho 198" d="M16.5,153.779c.151.15.151.3.3.6,1.355,3.463-.452,3.764-1.054,7.077-.6,3.463-.151,17.014,2.108,19.272,2.108,2.259,8.689,4.231,9.593,4.833s2.3,2.7,4.109,2.244-1.807-17.466-.452-18.52c1.2-1.054,4.818,3.313,6.474,4.216,1.656.753,2.71-1.807.753-4.969-1.807-3.162-7.745-8.729-8.7-10.366s-.452-3.873-.452-5.529a3.922,3.922,0,0,1,.452-1.656,43.773,43.773,0,0,0-6.361.387A37.328,37.328,0,0,0,16.5,153.779Z" transform="translate(0 -0.969)" fill="#cdcdcd"/>
    <path id="Caminho_199" data-name="Caminho 199" d="M17.667,74.18c3.479.3,5.971,4.312,5.565,8.951S19.677,91.284,16.2,90.98s-5.971-4.312-5.565-8.951S14.188,73.876,17.667,74.18Z" transform="translate(0 -0.969)" fill="#ffc501"/>
    <path id="Caminho_200" data-name="Caminho 200" d="M15.747,74.012c3.479.3,5.971,4.312,5.565,8.951s-3.555,8.153-7.035,7.849S8.306,86.5,8.712,81.86,12.267,73.707,15.747,74.012Z" transform="translate(0 -0.969)" fill="#ffe066"/>
    <path id="Caminho_201" data-name="Caminho 201" d="M74.921,78.043a1.241,1.241,0,0,0-1.506-1.054L37.882,82.41a1.241,1.241,0,0,0-1.054,1.506l2.259,16.111a1.24,1.24,0,0,0,1.506,1.054l35.835-5.872A1.241,1.241,0,0,0,77.481,93.7Z" transform="translate(0 -0.969)" fill="#ffc501" opacity="0.61"/>
    <path id="Caminho_202" data-name="Caminho 202" d="M90.137,102.371l-.027.009-.026.013a1.04,1.04,0,0,1-.261.1.585.585,0,0,1-.13.011c-.613-.137-.958-.59-.867-1.046l0-.013,0-.013,6.321-49.363a1.07,1.07,0,0,1,.769-.9l.01,0,.01,0,32.317-9.92h.354c.613.137.959.59.868,1.046l0,.013,0,.013-6.323,48.784,0,.025v.025a.615.615,0,0,1-.183.383,1.129,1.129,0,0,1-.456.306h0Z" transform="translate(0 -0.969)" fill="#ffec99" stroke="#ffc501" stroke-width="0.768" opacity="0.7"/>
    <path id="Caminho_203" data-name="Caminho 203" d="M56.625,52.232l-15.869-.091-2.1,1.091L49.383,67.053a1.581,1.581,0,0,0,1.355.753l8.223-1.356h.151a1.205,1.205,0,0,0,.9-1.656Z" transform="translate(0 -0.969)" fill="#9c9c9c"/>
    <path id="Caminho_204" data-name="Caminho 204" d="M57.154,52.6H40.14L50.529,65.546a1.581,1.581,0,0,0,1.355.753l7.077-1.355h.151a1.205,1.205,0,0,0,.9-1.656Z" transform="translate(0 -0.969)" fill="#cdcdcd" fill-rule="evenodd" opacity="0.5"/>
    <path id="Caminho_205" data-name="Caminho 205" d="M50.831,54.4A34.808,34.808,0,0,1,39.99,52.6a67.007,67.007,0,0,0,0-13.551c-.6-5.119-1.054-23.639,6.324-25.6,7.378-2.108,16.562.9,20.025,7.528,5.119,9.636-1.807,28.608-4.818,29.21a12.531,12.531,0,0,1-4.668-.151v3.614C56.4,54.254,54.444,54.4,50.831,54.4Z" transform="translate(0 -0.969)" fill="#ffa877"/>
    <path id="Caminho_206" data-name="Caminho 206" d="M49.383,48.489a8.235,8.235,0,0,0,4.486,3.651,9.5,9.5,0,0,0,2.986.437l0-2.54.33.047-.028-.049a18.312,18.312,0,0,1-3.575-.3A32.707,32.707,0,0,1,49.383,48.489Z" transform="translate(0 -0.969)" fill="rgba(0,0,0,0.29)"/>
    <path id="Caminho_207" data-name="Caminho 207" d="M73.115,18.871c1.054,2.108.151,10.239-4.818,10.239-5.119,0-12.045-5.119-14.3-5.119-2.108,0-1.656,7.83-3.162,8.281-1.506.6.6-4.366-1.807-5.27s-3.764.452-3.764,1.2-.6,5.872-2.56,7.077a6.2,6.2,0,0,0-2.71,2.409,9.381,9.381,0,0,1-2.861-6.324c0-3.463,0-10.991,1.2-12.949a14.863,14.863,0,0,1,5.27-4.366c1.054-3.614,2.71-5.27,4.668-5.27,3.162,0,7.227,2.71,8.883,2.71s7.679-.3,9.486,1.355c1.807,1.807.151,4.668.9,5.119S72.061,16.763,73.115,18.871Z" transform="translate(0 -0.969)" fill="#001731"/>
    <path id="Caminho_208" data-name="Caminho 208" d="M22.84,30.464a29.5,29.5,0,1,0,29.5-29.5A29.5,29.5,0,0,0,22.84,30.464Z" transform="translate(0 -0.969)" fill="#b5b5b5" stroke="#fff" stroke-width="1.537" opacity="0.46"/>
    <path id="Caminho_209" data-name="Caminho 209" d="M33.6,20.77c1.137-2.679.818-5.378-.713-6.027s-3.694,1-4.831,3.674-.818,5.378.713,6.028S32.459,23.449,33.6,20.77Z" transform="translate(0 -0.969)" fill="#fff" fill-rule="evenodd" opacity="0.8"/>
  </g>
</svg>
